<?xml version="1.0" standalone="no"?>
<!DOCTYPE svg PUBLIC "-//W3C//DTD SVG 20010904//EN"
 "http://www.w3.org/TR/2001/REC-SVG-20010904/DTD/svg10.dtd">
<svg version="1.0" xmlns="http://www.w3.org/2000/svg"
 width="494.400000pt" height="115.200000pt" viewBox="0 0 494.400000 115.200000"
 preserveAspectRatio="xMidYMid meet">
<metadata>
Created by potrace 1.13, written by Peter Selinger 2001-2015
</metadata>
<g transform="translate(0.000000,115.200000) scale(0.080000,-0.080000)"
fill="#000000" stroke="none">
<path d="M5375 1310 c-4 -7 -4 -47 -1 -89 4 -46 3 -88 -3 -104 -11 -27 -13
-28 -78 -25 -59 3 -68 6 -72 23 -2 11 -33 55 -69 98 -48 59 -70 77 -86 75 -37
-5 -28 -34 34 -111 33 -41 60 -78 60 -81 0 -3 -62 -7 -137 -8 l-138 -3 -37
-145 c-46 -180 -46 -180 -8 -180 36 0 40 7 70 145 11 55 27 105 33 112 13 12
907 37 960 26 25 -5 27 -8 21 -37 -3 -17 -21 -67 -40 -111 -33 -75 -34 -81
-17 -93 37 -26 54 -11 83 73 15 44 37 102 49 128 25 58 26 73 5 85 -10 5 -125
7 -268 4 -289 -6 -271 -11 -287 90 -21 126 -24 133 -46 136 -12 2 -24 -2 -28
-8z"/>
<path d="M5743 1260 c-66 -84 -77 -105 -70 -124 4 -9 17 -16 31 -16 19 0 33
15 71 75 45 73 54 114 28 122 -7 3 -34 -23 -60 -57z"/>
<path d="M3598 1203 l-78 -4 -1 -122 c0 -67 -4 -187 -10 -267 -5 -80 -11 -217
-14 -305 -3 -88 -10 -200 -16 -249 -7 -63 -7 -92 1 -102 9 -10 86 -12 409 -10
386 3 398 4 440 26 l43 22 -6 81 c-3 45 -11 127 -17 182 -14 139 -26 556 -17
639 4 42 3 75 -3 82 -7 8 -97 13 -312 17 -166 3 -311 7 -322 9 -11 2 -55 3
-97 1z m462 -68 c96 0 180 -3 187 -8 15 -10 26 -128 27 -305 0 -162 1 -161
-74 -162 -25 -1 -117 -5 -204 -10 -212 -11 -398 5 -414 38 -5 9 -6 109 -3 221
8 259 -1 247 181 235 69 -4 204 -8 300 -9z m170 -533 l45 -7 6 -85 c3 -47 10
-131 14 -187 l8 -102 -29 -12 c-44 -17 -688 -18 -706 -1 -10 10 -13 56 -13
181 0 152 2 171 19 190 18 20 30 21 285 24 146 1 280 3 296 4 17 1 50 -2 75
-5z"/>
<path d="M266 1181 c-8 -13 16 -60 66 -131 22 -30 95 -145 164 -256 l124 -201
1 -199 c1 -228 4 -249 39 -249 l25 0 5 250 5 250 35 66 c120 227 200 395 200
421 0 25 -4 29 -22 26 -19 -2 -39 -36 -108 -174 -101 -203 -146 -276 -169
-272 -8 2 -57 71 -107 153 -50 82 -120 188 -155 235 -61 81 -90 103 -103 81z"/>
<path d="M1299 1166 c-171 -46 -280 -204 -310 -450 -10 -77 -9 -101 5 -156 25
-98 99 -241 144 -277 108 -87 199 -123 308 -123 131 0 224 33 224 81 0 24 -38
25 -124 3 -84 -22 -179 -15 -249 20 -91 44 -137 93 -187 197 -45 94 -45 94
-45 204 0 75 5 127 17 165 24 77 87 177 133 211 92 69 222 89 310 49 36 -17
50 -19 61 -9 52 43 -43 99 -166 98 -41 0 -96 -6 -121 -13z"/>
<path d="M2328 1160 c-63 -11 -157 -39 -189 -56 -66 -34 -188 -137 -222 -186
-56 -83 -70 -147 -65 -301 4 -107 9 -143 27 -192 29 -74 101 -148 161 -166 53
-16 123 1 163 39 35 33 119 146 140 188 17 33 78 204 103 289 20 69 31 289 14
300 -27 16 -43 -22 -51 -122 -4 -54 -13 -120 -19 -148 -16 -72 -99 -294 -125
-335 -97 -151 -185 -195 -259 -130 -46 41 -73 100 -92 201 -19 101 -14 175 17
267 43 122 190 242 345 282 178 46 342 33 442 -37 102 -70 168 -186 179 -313
7 -81 -18 -208 -52 -266 -50 -85 -191 -178 -309 -205 -56 -12 -75 -31 -55 -55
23 -28 79 -15 192 44 180 93 241 167 273 332 20 104 14 204 -15 282 -46 120
-167 241 -274 273 -61 19 -260 28 -329 15z"/>
<path d="M5256 913 c-141 -2 -224 -7 -233 -14 -9 -8 -13 -42 -13 -119 0 -143
-6 -139 185 -142 l150 -3 13 -27 c17 -37 6 -77 -27 -90 -14 -6 -108 -12 -209
-14 -101 -2 -187 -6 -193 -9 -5 -4 -9 -78 -9 -170 0 -155 1 -164 20 -170 11
-3 24 -3 30 0 6 4 10 57 10 129 0 157 1 158 112 167 152 13 245 11 262 -7 13
-13 16 -44 16 -184 0 -178 5 -200 49 -200 36 0 40 20 30 132 -5 58 -9 141 -7
184 l3 79 189 3 c125 2 193 -1 200 -8 6 -6 13 -72 16 -153 5 -140 5 -142 29
-145 13 -2 28 1 34 7 6 6 12 82 14 187 l3 177 -234 -6 c-187 -4 -237 -3 -245
7 -13 15 -19 101 -8 112 4 4 77 9 163 12 200 6 194 1 187 144 -2 56 -6 109 -8
116 -3 9 -42 11 -157 10 -84 -2 -252 -4 -372 -5z m438 -49 c20 -8 29 -59 19
-109 l-9 -40 -129 -12 c-179 -16 -477 -17 -493 -1 -13 13 -15 87 -3 128 6 23
13 25 81 31 105 8 515 10 534 3z"/>
</g>
</svg>
